<svg width="149" height="60" viewBox="0 0 149 60" fill="none" xmlns="http://www.w3.org/2000/svg">
<path d="M149 0H0V60H149V0Z" fill="#ED1D24"/>
<path d="M126.092 13.9824V4.7987H100.55L96.3498 35.4795L92.1933 4.79885H82.9826L84.0144 12.9855C82.9505 10.8882 79.1795 4.79885 70.8806 4.79885C70.826 4.79527 61.6574 4.79885 61.6574 4.79885L61.6221 49.5185L54.9086 4.79885L42.8457 4.79184L35.9005 51.1275L35.9041 4.79855H24.3591L20.1971 30.8254L16.1431 4.79885H4.59441V55.1733H13.6888V30.8929L17.8256 55.1727H22.6605L26.7392 30.8929V55.1727H44.2716L45.3355 47.4214H52.3942L53.4545 55.1727L70.6671 55.1833H70.6811V55.1727H70.6918H70.7026V38.8211L72.8127 38.5135L77.1812 55.1833H77.192H86.0739H86.0843L86.0807 55.1727H86.0965H86.1072L80.3745 35.635C83.2797 33.4849 86.5599 28.025 85.6869 22.8017V22.7983C85.6973 22.8689 91.098 55.2049 91.098 55.2049L101.687 55.1727L108.922 9.5124V55.1729H126.092V46.1129H117.942V34.5599H126.092V25.3621H117.942V13.9824H126.092ZM46.4068 39.4332L48.9037 17.8972L51.4963 39.4332H46.4068ZM72.8422 29.489C72.1424 29.8286 71.4126 29.9984 70.7021 29.9984V13.795C70.7145 13.795 70.7288 13.7917 70.7464 13.7917C71.4586 13.7881 76.7688 14.0073 76.7688 21.8082C76.7688 25.889 74.9628 28.4601 72.8422 29.489ZM144.416 46.1059V55.1657H127.666V4.79184H136.685V46.1059H144.416Z" fill="white"/>
</svg>
